<?xml version="1.0" encoding="UTF-8" standalone="no"?>
<svg
   width="32"
   height="32"
   version="1.1"
   id="svg4"
   sodipodi:docname="error-dis.svg"
   inkscape:version="1.1 (c68e22c387, 2021-05-23)"
   xmlns:inkscape="http://www.inkscape.org/namespaces/inkscape"
   xmlns:sodipodi="http://sodipodi.sourceforge.net/DTD/sodipodi-0.dtd"
   xmlns="http://www.w3.org/2000/svg"
   xmlns:svg="http://www.w3.org/2000/svg">
  <defs
     id="defs8" />
  <sodipodi:namedview
     id="namedview6"
     pagecolor="#ffffff"
     bordercolor="#666666"
     borderopacity="1.0"
     inkscape:pageshadow="2"
     inkscape:pageopacity="0.0"
     inkscape:pagecheckerboard="0"
     showgrid="false"
     width="50px"
     inkscape:zoom="5.2"
     inkscape:cx="72.307692"
     inkscape:cy="62.211538"
     inkscape:window-width="2400"
     inkscape:window-height="1271"
     inkscape:window-x="-9"
     inkscape:window-y="-9"
     inkscape:window-maximized="1"
     inkscape:current-layer="svg4"
     inkscape:lockguides="true" />
  <path
     d="M 16,0 C 7.168,0 0,7.168 0,16 0,24.832 7.168,32 16,32 24.832,32 32,24.832 32,16 32,7.168 24.832,0 16,0 Z m 0,17.6 c -0.88,0 -1.6,-0.72 -1.6,-1.6 V 9.6 C 14.4,8.72 15.12,8 16,8 c 0.88,0 1.6,0.72 1.6,1.6 V 16 c 0,0.88 -0.72,1.6 -1.6,1.6 z m 1.6,6.4 h -3.2 v -3.2 h 3.2 z"
     fill="#e3483e"
     fill-rule="nonzero"
     id="path2"
     style="fill:#222831;fill-opacity:1;stroke-width:1" />
  <path
     d="m 15.908481,31.81696 c 8.78592,0 15.90848,-7.1232 15.90848,-15.90848 C 31.816961,7.12256 24.693761,0 15.908481,0 7.12256,0 0,7.12256 0,15.90848 0,24.6944 7.12256,31.81696 15.908481,31.81696 Z"
     fill="#ffffff"
     opacity="0.1"
     id="path14"
     style="fill-rule:evenodd;stroke-width:1" />
</svg>
