<?xml version="1.0" encoding="UTF-8" standalone="no"?>
<svg
   width="32"
   height="32"
   version="1.1"
   id="svg4"
   sodipodi:docname="warning.svg"
   inkscape:version="1.1 (c68e22c387, 2021-05-23)"
   xmlns:inkscape="http://www.inkscape.org/namespaces/inkscape"
   xmlns:sodipodi="http://sodipodi.sourceforge.net/DTD/sodipodi-0.dtd"
   xmlns="http://www.w3.org/2000/svg"
   xmlns:svg="http://www.w3.org/2000/svg">
  <defs
     id="defs8" />
  <sodipodi:namedview
     id="namedview6"
     pagecolor="#ffffff"
     bordercolor="#666666"
     borderopacity="1.0"
     inkscape:pageshadow="2"
     inkscape:pageopacity="0.0"
     inkscape:pagecheckerboard="0"
     showgrid="false"
     inkscape:zoom="10.4"
     inkscape:cx="7.5"
     inkscape:cy="9.7596154"
     inkscape:window-width="2400"
     inkscape:window-height="1271"
     inkscape:window-x="-9"
     inkscape:window-y="-9"
     inkscape:window-maximized="1"
     inkscape:current-layer="svg4" />
  <path
     d="M 3.3598947,30.801931 H 28.64052 c 2.585664,0 4.196904,-2.827271 2.904072,-5.080127 L 18.904279,3.6892583 a 3.3408827,3.3408827 0 0 0 -5.808144,0 L 0.45582281,25.721804 c -1.29283203,2.252856 0.32000791,5.080127 2.90407189,5.080127 z M 16.000208,18.001612 c -0.880022,0 -1.60004,-0.720016 -1.60004,-1.600038 v -3.20008 c 0,-0.880021 0.720018,-1.600039 1.60004,-1.600039 0.880021,0 1.600039,0.720018 1.600039,1.600039 v 3.20008 c 0,0.880022 -0.720018,1.600038 -1.600039,1.600038 z m 1.600039,8.000199 h -3.200079 v -3.200079 h 3.200079 z"
     fill="#ffa322"
     fill-rule="nonzero"
     id="path2"
     style="stroke-width:1" />
</svg>
