<?xml version="1.0" encoding="UTF-8" standalone="no"?>
<svg
   width="24"
   height="24"
   version="1.1"
   id="svg8"
   sodipodi:docname="digi-increase-sel.svg"
   inkscape:version="1.1 (c68e22c387, 2021-05-23)"
   xmlns:inkscape="http://www.inkscape.org/namespaces/inkscape"
   xmlns:sodipodi="http://sodipodi.sourceforge.net/DTD/sodipodi-0.dtd"
   xmlns="http://www.w3.org/2000/svg"
   xmlns:svg="http://www.w3.org/2000/svg">
  <defs
     id="defs12" />
  <sodipodi:namedview
     id="namedview10"
     pagecolor="#ffffff"
     bordercolor="#666666"
     borderopacity="1.0"
     inkscape:pageshadow="2"
     inkscape:pageopacity="0.0"
     inkscape:pagecheckerboard="0"
     showgrid="false"
     inkscape:zoom="16.24"
     inkscape:cx="37.007389"
     inkscape:cy="24.969212"
     inkscape:window-width="2400"
     inkscape:window-height="1271"
     inkscape:window-x="-9"
     inkscape:window-y="-9"
     inkscape:window-maximized="1"
     inkscape:current-layer="svg8" />
  <rect
     fill="#1975d2"
     width="24"
     height="24"
     rx="2.5945947"
     id="rect2"
     x="0"
     y="0"
     style="fill-rule:evenodd;stroke-width:1" />
  <path
     d="m 18.857,13.143 h -5.714 v 5.714 C 13.143,19.486 12.629,20 12,20 A 1.146,1.146 0 0 1 10.857,18.857 V 13.143 H 5.143 A 1.146,1.146 0 0 1 4,12 c 0,-0.629 0.514,-1.143 1.143,-1.143 h 5.714 V 5.143 C 10.857,4.514 11.371,4 12,4 c 0.629,0 1.143,0.514 1.143,1.143 v 5.714 h 5.714 c 0.629,0 1.143,0.514 1.143,1.143 0,0.629 -0.514,1.143 -1.143,1.143 z"
     fill="#ffffff"
     fill-rule="nonzero"
     id="path4" />
</svg>
