<?xml version="1.0" encoding="UTF-8" standalone="no"?>
<svg
   width="50"
   height="50"
   version="1.1"
   id="svg4"
   sodipodi:docname="error.svg"
   inkscape:version="1.1 (c68e22c387, 2021-05-23)"
   xmlns:inkscape="http://www.inkscape.org/namespaces/inkscape"
   xmlns:sodipodi="http://sodipodi.sourceforge.net/DTD/sodipodi-0.dtd"
   xmlns="http://www.w3.org/2000/svg"
   xmlns:svg="http://www.w3.org/2000/svg">
  <defs
     id="defs8" />
  <sodipodi:namedview
     id="namedview6"
     pagecolor="#ffffff"
     bordercolor="#666666"
     borderopacity="1.0"
     inkscape:pageshadow="2"
     inkscape:pageopacity="0.0"
     inkscape:pagecheckerboard="0"
     showgrid="false"
     width="50px"
     inkscape:zoom="20.8"
     inkscape:cx="18.485577"
     inkscape:cy="15.072115"
     inkscape:window-width="1920"
     inkscape:window-height="1017"
     inkscape:window-x="1912"
     inkscape:window-y="-8"
     inkscape:window-maximized="1"
     inkscape:current-layer="svg4" />
  <path
     d="M 25,0 C 11.2,0 0,11.2 0,25 0,38.8 11.2,50 25,50 38.8,50 50,38.8 50,25 50,11.2 38.8,0 25,0 Z m 0,27.5 c -1.375,0 -2.5,-1.125 -2.5,-2.5 V 15 c 0,-1.375 1.125,-2.5 2.5,-2.5 1.375,0 2.5,1.125 2.5,2.5 v 10 c 0,1.375 -1.125,2.5 -2.5,2.5 z m 2.5,10 h -5 v -5 h 5 z"
     fill="#e3483e"
     fill-rule="nonzero"
     id="path2"
     style="stroke-width:1" />
</svg>
