<?xml version="1.0" encoding="UTF-8" standalone="no"?>
<svg
   width="50"
   height="50"
   viewBox="0 0 50 50"
   version="1.1"
   id="svg10"
   sodipodi:docname="hw-check-dis.svg"
   inkscape:version="1.1 (c68e22c387, 2021-05-23)"
   xmlns:inkscape="http://www.inkscape.org/namespaces/inkscape"
   xmlns:sodipodi="http://sodipodi.sourceforge.net/DTD/sodipodi-0.dtd"
   xmlns="http://www.w3.org/2000/svg"
   xmlns:svg="http://www.w3.org/2000/svg"
   xmlns:rdf="http://www.w3.org/1999/02/22-rdf-syntax-ns#"
   xmlns:cc="http://creativecommons.org/ns#"
   xmlns:dc="http://purl.org/dc/elements/1.1/">
  <defs
     id="defs14" />
  <sodipodi:namedview
     id="namedview12"
     pagecolor="#ffffff"
     bordercolor="#666666"
     borderopacity="1.0"
     inkscape:pageshadow="2"
     inkscape:pageopacity="0.0"
     inkscape:pagecheckerboard="0"
     showgrid="false"
     width="50px"
     inkscape:zoom="8.6666667"
     inkscape:cx="7.9038461"
     inkscape:cy="28.211538"
     inkscape:window-width="1920"
     inkscape:window-height="1017"
     inkscape:window-x="1912"
     inkscape:window-y="-8"
     inkscape:window-maximized="1"
     inkscape:current-layer="svg10" />
  <title
     id="title2">51A00970-CB3D-4D9C-9D93-B59687FE55C3</title>
  <g
     id="Page-1"
     stroke="none"
     stroke-width="0.416667"
     fill="none"
     fill-rule="evenodd"
     opacity="0.3"
     transform="matrix(2.400404,0,0,2.3995805,-3.8048479,-3.7950972)">
    <g
       id="1.1.1-home-page-assets"
       transform="translate(-1098,-469)"
       fill-rule="nonzero"
       style="stroke-width:0.268959">
      <g
         id="hw_check_dis"
         transform="translate(1098,469)"
         style="stroke-width:0.416667">
        <path
           d="M 12,2 C 6.48,2 2,6.48 2,12 2,17.52 6.48,22 12,22 17.52,22 22,17.52 22,12 22,6.48 17.52,2 12,2 Z"
           id="Path"
           stroke="#ffffff"
           stroke-width="0.833339"
           fill="#7cb342" />
        <path
           d="M 9.9984393,16.176561 7.2258966,13.404018 c -0.3011955,-0.301195 -0.3011955,-0.787742 0,-1.088937 0.3011954,-0.301196 0.7877419,-0.301196 1.0889374,0 l 2.231935,2.224212 5.313397,-5.3133964 c 0.301196,-0.3011955 0.787742,-0.3011955 1.088937,0 0.301196,0.3011954 0.301196,0.7877424 0,1.0889374 l -5.861726,5.861727 c -0.293473,0.301195 -0.787742,0.301195 -1.0889377,0 z"
           id="path5"
           fill="#424242"
           style="stroke-width:0.268959" />
      </g>
    </g>
  </g>
  <metadata
     id="metadata831">
    <rdf:RDF>
      <cc:Work
         rdf:about="">
        <dc:title>51A00970-CB3D-4D9C-9D93-B59687FE55C3</dc:title>
      </cc:Work>
    </rdf:RDF>
  </metadata>
</svg>
