<?xml version="1.0" encoding="UTF-8" standalone="no"?>
<svg
   width="50"
   height="50"
   version="1.1"
   id="svg8"
   sodipodi:docname="hw-check.svg"
   inkscape:version="1.1 (c68e22c387, 2021-05-23)"
   xmlns:inkscape="http://www.inkscape.org/namespaces/inkscape"
   xmlns:sodipodi="http://sodipodi.sourceforge.net/DTD/sodipodi-0.dtd"
   xmlns="http://www.w3.org/2000/svg"
   xmlns:svg="http://www.w3.org/2000/svg">
  <defs
     id="defs12" />
  <sodipodi:namedview
     id="namedview10"
     pagecolor="#ffffff"
     bordercolor="#666666"
     borderopacity="1.0"
     inkscape:pageshadow="2"
     inkscape:pageopacity="0.0"
     inkscape:pagecheckerboard="0"
     showgrid="false"
     width="50px"
     inkscape:zoom="6.1282588"
     inkscape:cx="19.499829"
     inkscape:cy="30.269609"
     inkscape:window-width="1920"
     inkscape:window-height="1017"
     inkscape:window-x="1912"
     inkscape:window-y="-8"
     inkscape:window-maximized="1"
     inkscape:current-layer="svg8" />
  <g
     fill-rule="nonzero"
     fill="none"
     id="g6"
     transform="matrix(2.3999474,0,0,2.3993189,-3.7997659,-3.7987708)"
     style="stroke-width:0.416731">
    <path
       d="M 12,2 C 6.48,2 2,6.48 2,12 2,17.52 6.48,22 12,22 17.52,22 22,17.52 22,12 22,6.48 17.52,2 12,2 Z"
       stroke="#ffffff"
       stroke-width="0.833459"
       fill="#7cb342"
       id="path2" />
    <path
       d="M 9.998,16.177 7.226,13.404 a 0.77003928,0.77003928 0 1 1 1.089,-1.089 l 2.232,2.224 5.313,-5.313 a 0.77039292,0.77039292 0 1 1 1.09,1.089 l -5.863,5.862 a 0.77,0.77 0 0 1 -1.089,0 z"
       fill="#424242"
       id="path4"
       style="stroke-width:0.268999" />
  </g>
</svg>
