<svg width="80" height="80" xmlns="http://www.w3.org/2000/svg" xmlns:xlink="http://www.w3.org/1999/xlink">
    <defs>
        <path d="M40 25c-8.25 0-15 6.75-15 15s6.75 15 15 15 15-6.75 15-15-6.75-15-15-15zm5.325 20.7-6.12-3.765c-.45-.27-.72-.75-.72-1.275v-7.035a1.156 1.156 0 0 1 1.14-1.125c.615 0 1.125.51 1.125 1.125V40.3l5.76 3.465c.54.33.72 1.035.39 1.575-.33.525-1.035.69-1.575.36z" id="b"/>
    </defs>
    <g fill="none" fill-rule="evenodd">
        <circle fill="#222831" cx="40" cy="40" r="37.143"/>
        <path d="M40.286 65.143c13.728 0 24.857-11.13 24.857-24.857 0-13.728-11.13-24.857-24.857-24.857-13.728 0-24.857 11.129-24.857 24.857s11.129 24.857 24.857 24.857z" fill="#FFF" opacity=".1"/>
        <g fill-rule="nonzero">
            <use fill="#000" filter="url(#a)" xlink:href="#b"/>
            <use fill="#FFF" xlink:href="#b"/>
        </g>
    </g>
</svg>
