<?xml version="1.0" encoding="UTF-8" standalone="no"?>
<svg
   width="80"
   height="80"
   version="1.1"
   id="svg24"
   sodipodi:docname="idle-dis.svg"
   inkscape:version="1.1 (c68e22c387, 2021-05-23)"
   xmlns:inkscape="http://www.inkscape.org/namespaces/inkscape"
   xmlns:sodipodi="http://sodipodi.sourceforge.net/DTD/sodipodi-0.dtd"
   xmlns:xlink="http://www.w3.org/1999/xlink"
   xmlns="http://www.w3.org/2000/svg"
   xmlns:svg="http://www.w3.org/2000/svg">
  <sodipodi:namedview
     id="namedview26"
     pagecolor="#ffffff"
     bordercolor="#666666"
     borderopacity="1.0"
     inkscape:pageshadow="2"
     inkscape:pageopacity="0.0"
     inkscape:pagecheckerboard="0"
     showgrid="false"
     inkscape:zoom="10.15"
     inkscape:cx="40"
     inkscape:cy="39.950739"
     inkscape:window-width="2400"
     inkscape:window-height="1271"
     inkscape:window-x="-9"
     inkscape:window-y="-9"
     inkscape:window-maximized="1"
     inkscape:current-layer="svg24" />
  <defs
     id="defs10">
    <path
       d="M40 25c-8.25 0-15 6.75-15 15s6.75 15 15 15 15-6.75 15-15-6.75-15-15-15zm5.325 20.7-6.12-3.765c-.45-.27-.72-.75-.72-1.275v-7.035a1.156 1.156 0 0 1 1.14-1.125c.615 0 1.125.51 1.125 1.125V40.3l5.76 3.465c.54.33.72 1.035.39 1.575-.33.525-1.035.69-1.575.36z"
       id="b" />
  </defs>
  <circle
     fill="#222831"
     cx="40"
     cy="40"
     r="37.143002"
     id="circle12"
     style="fill-rule:evenodd" />
  <path
     d="m 40.286,65.143 c 13.728,0 24.857,-11.13 24.857,-24.857 0,-13.728 -11.13,-24.857 -24.857,-24.857 -13.728,0 -24.857,11.129 -24.857,24.857 0,13.728 11.129,24.857 24.857,24.857 z"
     fill="#ffffff"
     opacity="0.1"
     id="path14"
     style="fill-rule:evenodd" />
  <use
     fill="#000000"
     filter="url(#a)"
     xlink:href="#b"
     id="use16"
     x="0"
     y="0"
     width="100%"
     height="100%"
     style="opacity:0.3;fill-rule:nonzero" />
  <use
     fill="#ffffff"
     xlink:href="#b"
     id="use18"
     x="0"
     y="0"
     width="100%"
     height="100%"
     style="opacity:0.3;fill-rule:nonzero" />
</svg>
