<?xml version="1.0" encoding="UTF-8" standalone="no"?>
<svg
   width="80"
   height="80"
   version="1.1"
   id="svg1741"
   sodipodi:docname="maintenance-dis.svg"
   inkscape:version="1.1 (c68e22c387, 2021-05-23)"
   xmlns:inkscape="http://www.inkscape.org/namespaces/inkscape"
   xmlns:sodipodi="http://sodipodi.sourceforge.net/DTD/sodipodi-0.dtd"
   xmlns:xlink="http://www.w3.org/1999/xlink"
   xmlns="http://www.w3.org/2000/svg"
   xmlns:svg="http://www.w3.org/2000/svg">
  <sodipodi:namedview
     id="namedview1743"
     pagecolor="#ffffff"
     bordercolor="#666666"
     borderopacity="1.0"
     inkscape:pageshadow="2"
     inkscape:pageopacity="0.0"
     inkscape:pagecheckerboard="0"
     showgrid="false"
     inkscape:zoom="13.1625"
     inkscape:cx="39.962013"
     inkscape:cy="40"
     inkscape:window-width="2400"
     inkscape:window-height="1271"
     inkscape:window-x="-9"
     inkscape:window-y="-9"
     inkscape:window-maximized="1"
     inkscape:current-layer="svg1741" />
  <defs
     id="defs1727">
    <path
       d="M40.633 26.844c-3.015-3.015-7.53-3.63-11.16-1.86l5.445 5.445c.585.585.585 1.53 0 2.115l-2.385 2.385c-.585.6-1.53.6-2.115 0l-5.445-5.445c-1.755 3.645-1.14 8.13 1.875 11.145 2.79 2.79 6.87 3.525 10.335 2.22l11.94 11.94a3.92 3.92 0 0 0 5.565 0 3.92 3.92 0 0 0 0-5.565L42.808 37.33c1.38-3.51.66-7.65-2.175-10.485z"
       id="b" />
  </defs>
  <circle
     fill="#222831"
     cx="40"
     cy="40"
     r="37.143002"
     id="circle1729"
     style="fill-rule:evenodd" />
  <path
     d="m 40.286,65.143 c 13.728,0 24.857,-11.13 24.857,-24.857 0,-13.728 -11.13,-24.857 -24.857,-24.857 -13.728,0 -24.857,11.129 -24.857,24.857 0,13.728 11.129,24.857 24.857,24.857 z"
     fill="#ffffff"
     opacity="0.1"
     id="path1731"
     style="fill-rule:evenodd" />
  <use
     fill="#000000"
     filter="url(#a)"
     xlink:href="#b"
     id="use1733"
     x="0"
     y="0"
     width="100%"
     height="100%"
     style="opacity:0.3;fill-rule:nonzero" />
  <use
     fill="#ffffff"
     xlink:href="#b"
     id="use1735"
     x="0"
     y="0"
     width="100%"
     height="100%"
     style="opacity:0.3;fill-rule:nonzero" />
</svg>
