<?xml version="1.0" encoding="UTF-8" standalone="no"?>
<svg
   width="50"
   height="50"
   version="1.1"
   id="svg8"
   sodipodi:docname="mute.svg"
   inkscape:version="1.1 (c68e22c387, 2021-05-23)"
   xmlns:inkscape="http://www.inkscape.org/namespaces/inkscape"
   xmlns:sodipodi="http://sodipodi.sourceforge.net/DTD/sodipodi-0.dtd"
   xmlns="http://www.w3.org/2000/svg"
   xmlns:svg="http://www.w3.org/2000/svg">
  <defs
     id="defs12" />
  <sodipodi:namedview
     id="namedview10"
     pagecolor="#ffffff"
     bordercolor="#666666"
     borderopacity="1.0"
     inkscape:pageshadow="2"
     inkscape:pageopacity="0.0"
     inkscape:pagecheckerboard="0"
     showgrid="false"
     inkscape:zoom="16.64"
     inkscape:cx="24.969952"
     inkscape:cy="24.969952"
     inkscape:window-width="1920"
     inkscape:window-height="1017"
     inkscape:window-x="1912"
     inkscape:window-y="-8"
     inkscape:window-maximized="1"
     inkscape:current-layer="svg8" />
  <rect
     fill="#1975D2"
     opacity="0.1"
     width="50"
     height="50"
     rx="8"
     id="rect2"
     style="fill:none;fill-opacity:1;fill-rule:evenodd"
     x="0"
     y="0" />
  <path
     d="m 12.945,12.439 a 1.494,1.494 0 0 0 0,2.115 l 5.49,5.49 -0.435,0.45 h -4.5 c -0.825,0 -1.5,0.675 -1.5,1.5 v 6 c 0,0.825 0.675,1.5 1.5,1.5 H 18 l 4.935,4.935 c 0.945,0.945 2.565,0.27 2.565,-1.065 v -6.255 l 6.27,6.27 a 10.24,10.24 0 0 1 -2.4,1.365 c -0.54,0.225 -0.87,0.795 -0.87,1.38 0,1.08 1.095,1.77 2.085,1.365 a 13.524,13.524 0 0 0 3.33,-1.965 l 2.01,2.01 c 0.585,0.585 1.53,0.585 2.115,0 a 1.494,1.494 0 0 0 0,-2.115 L 15.075,12.439 a 1.512,1.512 0 0 0 -2.13,0 z M 36,24.994 c 0,1.23 -0.225,2.415 -0.615,3.51 l 2.295,2.295 c 0.84,-1.755 1.32,-3.72 1.32,-5.805 0,-5.745 -3.6,-10.665 -8.67,-12.6 -0.885,-0.345 -1.83,0.345 -1.83,1.29 v 0.285 c 0,0.57 0.375,1.065 0.915,1.275 3.855,1.56 6.585,5.34 6.585,9.75 z m -13.065,-9.435 -0.255,0.255 2.82,2.82 v -2.025 c 0,-1.335 -1.62,-1.995 -2.565,-1.05 z m 9.315,9.435 c 0,-2.655 -1.53,-4.935 -3.75,-6.045 v 2.685 l 3.72,3.72 c 0.015,-0.12 0.03,-0.24 0.03,-0.36 z"
     fill="#000"
     fill-rule="nonzero"
     opacity="0.8"
     id="path4"
     style="fill:#000000;fill-opacity:1" />
</svg>
