<?xml version="1.0" encoding="UTF-8" standalone="no"?>
<svg
   width="80"
   height="80"
   version="1.1"
   id="svg24"
   sodipodi:docname="printing-dis.svg"
   inkscape:version="1.1 (c68e22c387, 2021-05-23)"
   xmlns:inkscape="http://www.inkscape.org/namespaces/inkscape"
   xmlns:sodipodi="http://sodipodi.sourceforge.net/DTD/sodipodi-0.dtd"
   xmlns:xlink="http://www.w3.org/1999/xlink"
   xmlns="http://www.w3.org/2000/svg"
   xmlns:svg="http://www.w3.org/2000/svg">
  <sodipodi:namedview
     id="namedview26"
     pagecolor="#ffffff"
     bordercolor="#666666"
     borderopacity="1.0"
     inkscape:pageshadow="2"
     inkscape:pageopacity="0.0"
     inkscape:pagecheckerboard="0"
     showgrid="false"
     inkscape:zoom="10.15"
     inkscape:cx="40"
     inkscape:cy="39.950739"
     inkscape:window-width="2400"
     inkscape:window-height="1271"
     inkscape:window-x="-9"
     inkscape:window-y="-9"
     inkscape:window-maximized="1"
     inkscape:current-layer="svg24" />
  <defs
     id="defs10">
    <path
       d="M40 25c-8.28 0-15 6.72-15 15 0 8.28 6.72 15 15 15 8.28 0 15-6.72 15-15 0-8.28-6.72-15-15-15zm-3 20.25v-10.5a.75.75 0 0 1 1.2-.6l7.005 5.25c.405.3.405.9 0 1.2L38.2 45.85a.75.75 0 0 1-1.2-.6z"
       id="b" />
  </defs>
  <circle
     fill="#222831"
     cx="40"
     cy="40"
     r="37.143002"
     id="circle12"
     style="fill-rule:evenodd" />
  <path
     d="m 39.857,64.714 c 13.728,0 24.857,-11.129 24.857,-24.857 C 64.714,26.129 53.585,15 39.857,15 26.129,15 15,26.13 15,39.857 15,53.585 26.13,64.714 39.857,64.714 Z"
     fill="#7cb342"
     opacity="0.1"
     id="path14"
     style="fill-rule:evenodd" />
  <use
     fill="#000000"
     filter="url(#a)"
     xlink:href="#b"
     id="use16"
     x="0"
     y="0"
     width="100%"
     height="100%"
     style="opacity:0.3;fill-rule:nonzero" />
  <use
     fill="#fafafa"
     xlink:href="#b"
     id="use18"
     x="0"
     y="0"
     width="100%"
     height="100%"
     style="opacity:0.3;fill-rule:nonzero" />
</svg>
