<?xml version="1.0" encoding="UTF-8" standalone="no"?>
<svg
   width="50"
   height="50"
   version="1.1"
   id="svg10"
   sodipodi:docname="ref-def.svg"
   inkscape:version="1.1 (c68e22c387, 2021-05-23)"
   xmlns:inkscape="http://www.inkscape.org/namespaces/inkscape"
   xmlns:sodipodi="http://sodipodi.sourceforge.net/DTD/sodipodi-0.dtd"
   xmlns="http://www.w3.org/2000/svg"
   xmlns:svg="http://www.w3.org/2000/svg">
  <defs
     id="defs14" />
  <sodipodi:namedview
     id="namedview12"
     pagecolor="#ffffff"
     bordercolor="#666666"
     borderopacity="1.0"
     inkscape:pageshadow="2"
     inkscape:pageopacity="0.0"
     inkscape:pagecheckerboard="0"
     showgrid="false"
     inkscape:zoom="11.766257"
     inkscape:cx="18.145108"
     inkscape:cy="22.22457"
     inkscape:window-width="1920"
     inkscape:window-height="1017"
     inkscape:window-x="1912"
     inkscape:window-y="-8"
     inkscape:window-maximized="1"
     inkscape:current-layer="svg10" />
  <path
     d="m 11,38.582 v -12 c 0,-1.1 -0.9,-2 -2,-2 -1.1,0 -2,0.9 -2,2 v 12 c 0,2.2 1.8,4 4,4 h 28 c 2.2,0 4,-1.8 4,-4 v -12 c 0,-1.1 -0.9,-2 -2,-2 -1.1,0 -2,0.9 -2,2 v 12 z"
     fill="#000000"
     fill-rule="nonzero"
     opacity="0.8"
     id="path4"
     style="stroke-width:1" />
  <path
     d="M 24.3,30.3 18.72,24.72 C 18.08,24.08 18.52,23 19.42,23 H 23 V 9 c 0,-1.1 0.9,-2 2,-2 1.1,0 2,0.9 2,2 v 14 h 3.58 c 0.9,0 1.34,1.08 0.7,1.7 l -5.58,5.58 c -0.38,0.4 -1.02,0.4 -1.4,0.02 z"
     fill="#000000"
     fill-rule="nonzero"
     opacity="0.8"
     id="path6"
     style="stroke-width:1" />
</svg>
