<?xml version="1.0" encoding="UTF-8" standalone="no"?>
<svg
   width="50"
   height="50"
   version="1.1"
   id="svg4"
   sodipodi:docname="warning.svg"
   inkscape:version="1.1 (c68e22c387, 2021-05-23)"
   inkscape:export-filename="C:\Git\PLC_BR\PLC code\Logical\mappView\Resources\Media\CategoryPictures\Warning.png"
   inkscape:export-xdpi="61.439999"
   inkscape:export-ydpi="61.439999"
   xmlns:inkscape="http://www.inkscape.org/namespaces/inkscape"
   xmlns:sodipodi="http://sodipodi.sourceforge.net/DTD/sodipodi-0.dtd"
   xmlns="http://www.w3.org/2000/svg"
   xmlns:svg="http://www.w3.org/2000/svg">
  <defs
     id="defs8" />
  <sodipodi:namedview
     id="namedview6"
     pagecolor="#ffffff"
     bordercolor="#666666"
     borderopacity="1.0"
     inkscape:pageshadow="2"
     inkscape:pageopacity="0.0"
     inkscape:pagecheckerboard="0"
     showgrid="false"
     inkscape:zoom="10.4"
     inkscape:cx="7.5"
     inkscape:cy="17.451923"
     inkscape:window-width="2400"
     inkscape:window-height="1271"
     inkscape:window-x="-9"
     inkscape:window-y="-9"
     inkscape:window-maximized="1"
     inkscape:current-layer="svg4" />
  <path
     d="M 5.2496588,46.002255 H 44.750636 c 4.0401,0 6.557663,-4.41761 4.537613,-7.937698 L 29.537759,3.638705 a 5.2201292,5.2201292 0 0 0 -9.075224,0 L 0.71204645,38.064557 C -1.3080036,41.584645 1.2120588,46.002255 5.2496588,46.002255 Z M 25.000149,26.001757 c -1.375035,0 -2.500063,-1.125025 -2.500063,-2.50006 v -5.000124 c 0,-1.375034 1.125028,-2.500062 2.500063,-2.500062 1.375032,0 2.50006,1.125028 2.50006,2.500062 v 5.000124 c 0,1.375035 -1.125028,2.50006 -2.50006,2.50006 z m 2.50006,12.500311 h -5.000123 v -5.000123 h 5.000123 z"
     fill="#ffa322"
     fill-rule="nonzero"
     id="path2"
     style="stroke-width:1" />
</svg>
