<?xml version="1.0" encoding="UTF-8" standalone="no"?>
<svg
   viewBox="0 0 40 40"
   version="1.1"
   id="svg4"
   sodipodi:docname="wind40.svg"
   width="40"
   height="40"
   inkscape:version="1.1 (c68e22c387, 2021-05-23)"
   xmlns:inkscape="http://www.inkscape.org/namespaces/inkscape"
   xmlns:sodipodi="http://sodipodi.sourceforge.net/DTD/sodipodi-0.dtd"
   xmlns="http://www.w3.org/2000/svg"
   xmlns:svg="http://www.w3.org/2000/svg">
  <defs
     id="defs8" />
  <sodipodi:namedview
     id="namedview6"
     pagecolor="#ffffff"
     bordercolor="#666666"
     borderopacity="1.0"
     inkscape:pageshadow="2"
     inkscape:pageopacity="0.0"
     inkscape:pagecheckerboard="0"
     showgrid="false"
     inkscape:zoom="10.638575"
     inkscape:cx="36.09506"
     inkscape:cy="38.398"
     inkscape:window-width="2400"
     inkscape:window-height="1271"
     inkscape:window-x="-9"
     inkscape:window-y="-9"
     inkscape:window-maximized="1"
     inkscape:current-layer="svg4" />
  <!-- Font Awesome Pro 5.15.4 by @fontawesome - https://fontawesome.com License - https://fontawesome.com/license (Commercial License) -->
  <path
     d="M 12.241658,19.996268 H 1.249946 C 0.56247569,19.996268 0,20.558744 0,21.246214 v 2.499892 c 0,0.687471 0.56247569,1.249946 1.249946,1.249946 h 11.108895 c 1.242134,0 2.406146,0.851526 2.609262,2.078035 0.257801,1.562433 -0.945272,2.921749 -2.468643,2.921749 -1.101515,0 -2.038975,-0.718719 -2.374898,-1.710863 C 9.9605068,27.792806 9.4527163,27.495944 8.9371138,27.495944 H 6.3747244 c -0.765592,0 -1.3827526,0.687471 -1.2421335,1.437438 0.6718455,3.445163 3.7185889,6.062238 7.3590571,6.062238 4.460744,0 8.02309,-3.913894 7.437178,-8.484008 -0.476542,-3.781087 -3.882644,-6.515344 -7.687168,-6.515344 z M 1.249946,17.496376 h 26.248865 c 4.663861,0 8.34339,-4.281065 7.327809,-9.116793 C 34.232895,5.55158 31.943932,3.2626166 29.115929,2.6688921 24.787991,1.7626812 20.905347,4.6141206 20.139755,8.567075 19.991324,9.317042 20.616297,9.9967 21.374076,9.9967 h 2.56239 c 0.523415,0 1.023393,-0.296862 1.187448,-0.789028 0.335923,-0.992145 1.273382,-1.7108635 2.374897,-1.7108635 1.51556,0 2.726445,1.3593165 2.468644,2.9217485 -0.203117,1.22651 -1.359317,2.078035 -2.609263,2.078035 H 1.249946 C 0.56247569,12.496592 0,13.059068 0,13.746538 v 2.499892 c 0,0.687471 0.56247569,1.249946 1.249946,1.249946 z m 29.998703,2.499892 H 19.03824 c 1.507747,1.296819 2.593638,3.031119 3.10924,4.999784 h 9.101169 c 2.070223,0 3.749838,1.679615 3.749838,3.749838 0,2.070223 -1.679615,3.749838 -3.749838,3.749838 -1.398377,0 -2.60145,-0.773404 -3.249859,-1.906168 -0.226553,-0.390608 -0.679658,-0.593724 -1.132764,-0.593724 h -2.64051 c -0.851526,0 -1.484311,0.843713 -1.195261,1.648366 1.390565,3.952954 5.507574,6.624712 10.108938,5.648192 3.218611,-0.679655 5.866934,-3.249858 6.616901,-6.460657 1.33588,-5.718502 -2.99987,-10.835469 -8.507445,-10.835469 z"
     id="path2"
     style="stroke-width:1" />
</svg>
