<?xml version="1.0" encoding="UTF-8" standalone="no"?>
<svg
   viewBox="0 0 80 80"
   version="1.1"
   id="svg4"
   sodipodi:docname="wind.svg"
   width="80"
   height="80"
   inkscape:version="1.1 (c68e22c387, 2021-05-23)"
   xmlns:inkscape="http://www.inkscape.org/namespaces/inkscape"
   xmlns:sodipodi="http://sodipodi.sourceforge.net/DTD/sodipodi-0.dtd"
   xmlns="http://www.w3.org/2000/svg"
   xmlns:svg="http://www.w3.org/2000/svg">
  <defs
     id="defs8" />
  <sodipodi:namedview
     id="namedview6"
     pagecolor="#ffffff"
     bordercolor="#666666"
     borderopacity="1.0"
     inkscape:pageshadow="2"
     inkscape:pageopacity="0.0"
     inkscape:pagecheckerboard="0"
     showgrid="false"
     inkscape:zoom="15.045217"
     inkscape:cx="40.012717"
     inkscape:cy="39.979483"
     inkscape:window-width="2400"
     inkscape:window-height="1271"
     inkscape:window-x="-9"
     inkscape:window-y="-9"
     inkscape:window-maximized="1"
     inkscape:current-layer="svg4" />
  <!-- Font Awesome Pro 5.15.4 by @fontawesome - https://fontawesome.com License - https://fontawesome.com/license (Commercial License) -->
  <path
     d="M 24.483317,39.992537 H 2.499892 C 1.1249514,39.992537 0,41.117488 0,42.492429 v 4.999784 c 0,1.374941 1.1249514,2.499892 2.499892,2.499892 h 22.21779 c 2.484268,0 4.812292,1.703051 5.218525,4.15607 0.515602,3.124865 -1.890544,5.843498 -4.937287,5.843498 -2.20303,0 -4.077949,-1.437438 -4.749795,-3.421727 -0.328111,-0.984333 -1.343692,-1.578057 -2.374897,-1.578057 h -5.124779 c -1.531184,0 -2.7655053,1.374941 -2.484267,2.874876 1.343691,6.890327 7.437178,12.124476 14.718114,12.124476 8.921489,0 16.046181,-7.827787 14.874357,-16.968017 C 38.904569,45.461051 32.092364,39.992537 24.483317,39.992537 Z M 2.499892,34.992753 h 52.497732 c 9.327722,0 16.686779,-8.56213 14.655617,-18.233587 C 68.465792,11.10316 63.887865,6.5252332 58.231859,5.3377842 49.575983,3.5253622 41.810694,9.2282412 40.27951,17.13415 c -0.296862,1.499935 0.953084,2.859251 2.468643,2.859251 h 5.124779 c 1.04683,0 2.046786,-0.593724 2.374897,-1.578057 0.671846,-1.984289 2.546765,-3.421727 4.749795,-3.421727 3.031119,0 5.452889,2.718633 4.937287,5.843498 -0.406233,2.453019 -2.718633,4.15607 -5.218525,4.15607 H 2.499892 C 1.1249514,24.993185 0,26.118136 0,27.493077 v 4.999784 c 0,1.374941 1.1249514,2.499892 2.499892,2.499892 z M 62.4973,39.992537 H 38.07648 c 3.015495,2.593638 5.187276,6.062238 6.218481,9.999568 H 62.4973 c 4.140446,0 7.499676,3.35923 7.499676,7.499676 0,4.140446 -3.35923,7.499676 -7.499676,7.499676 -2.796754,0 -5.2029,-1.546808 -6.499719,-3.812335 -0.453106,-0.781217 -1.359316,-1.187449 -2.265527,-1.187449 h -5.281022 c -1.703052,0 -2.968622,1.687427 -2.390522,3.296733 C 48.84164,71.194314 57.075659,76.53783 66.278387,74.58479 72.715609,73.22548 78.012255,68.085073 79.51219,61.663476 82.183949,50.22647 73.512449,39.992537 62.4973,39.992537 Z"
     id="path2"
     style="stroke-width:1" />
</svg>
