<?xml version="1.0" encoding="UTF-8" standalone="no"?>
<!-- Generator: Adobe Illustrator 20.0.0, SVG Export Plug-In . SVG Version: 6.00 Build 0)  -->

<svg
   xmlns:dc="http://purl.org/dc/elements/1.1/"
   xmlns:cc="http://creativecommons.org/ns#"
   xmlns:rdf="http://www.w3.org/1999/02/22-rdf-syntax-ns#"
   xmlns:svg="http://www.w3.org/2000/svg"
   xmlns="http://www.w3.org/2000/svg"
   xmlns:sodipodi="http://sodipodi.sourceforge.net/DTD/sodipodi-0.dtd"
   xmlns:inkscape="http://www.inkscape.org/namespaces/inkscape"
   version="1.1"
   id="Ebene_1"
   x="0px"
   y="0px"
   viewBox="0 0 32 32"
   style="enable-background:new 0 0 32 32;"
   xml:space="preserve"
   width="32px"
   height="32px"
   class="br-symbol-library"
   sodipodi:docname="Down.svg"
   inkscape:version="0.92.4 (5da689c313, 2019-01-14)"><metadata
   id="metadata10"><rdf:RDF><cc:Work
       rdf:about=""><dc:format>image/svg+xml</dc:format><dc:type
         rdf:resource="http://purl.org/dc/dcmitype/StillImage" /><dc:title></dc:title></cc:Work></rdf:RDF></metadata><defs
   id="defs8">
	
</defs><sodipodi:namedview
   pagecolor="#ffffff"
   bordercolor="#666666"
   borderopacity="1"
   objecttolerance="10"
   gridtolerance="10"
   guidetolerance="10"
   inkscape:pageopacity="0"
   inkscape:pageshadow="2"
   inkscape:window-width="1920"
   inkscape:window-height="1017"
   id="namedview6"
   showgrid="false"
   inkscape:zoom="7.375"
   inkscape:cx="16"
   inkscape:cy="16"
   inkscape:window-x="-8"
   inkscape:window-y="-8"
   inkscape:window-maximized="1"
   inkscape:current-layer="Ebene_1" />
<path
   inkscape:connector-curvature="0"
   d="m 5.779,21.265428 9.647,9.793 c 0.258,0.258 0.68,0.248 0.938,-0.01 l 9.647,-9.778 c 0.258,-0.258 0.171,-0.675 -0.193,-0.675 l -5.973,0 v -9.838 c 0,-0.365 -0.278,-0.828 -0.643,-0.828 l -6.613,0 c -0.365,0 -0.682,0.464 -0.682,0.828 l 0,9.838 -5.934,0 c -0.365,0 -0.452,0.413 -0.194,0.67 z m -5.045,-13.816 30.375,0 c 0.365,0 0.891,-0.298 0.891,-0.66 v -6.037 l -32,0 0,6.037 c 0,0.362 0.369,0.66 0.734,0.66 z m 1.995,-4.218 h 1.984 v 1.984 H 2.729 Z"
   id="Öffnen_3_" />
<g
   id="Ebene_1_1_">
</g>
</svg>