<?xml version="1.0" encoding="UTF-8" standalone="no"?>
<!-- Generator: Adobe Illustrator 20.0.0, SVG Export Plug-In . SVG Version: 6.00 Build 0)  -->

<svg
   xmlns:dc="http://purl.org/dc/elements/1.1/"
   xmlns:cc="http://creativecommons.org/ns#"
   xmlns:rdf="http://www.w3.org/1999/02/22-rdf-syntax-ns#"
   xmlns:svg="http://www.w3.org/2000/svg"
   xmlns="http://www.w3.org/2000/svg"
   xmlns:sodipodi="http://sodipodi.sourceforge.net/DTD/sodipodi-0.dtd"
   xmlns:inkscape="http://www.inkscape.org/namespaces/inkscape"
   version="1.1"
   x="0px"
   y="0px"
   viewBox="0 0 32 32"
   style="enable-background:new 0 0 32 32;"
   xml:space="preserve"
   width="32px"
   height="32px"
   class="br-symbol-library"
   id="svg5"
   sodipodi:docname="Substract.svg"
   inkscape:version="0.92.4 (5da689c313, 2019-01-14)"><metadata
   id="metadata11"><rdf:RDF><cc:Work
       rdf:about=""><dc:format>image/svg+xml</dc:format><dc:type
         rdf:resource="http://purl.org/dc/dcmitype/StillImage" /><dc:title></dc:title></cc:Work></rdf:RDF></metadata><defs
   id="defs9" /><sodipodi:namedview
   pagecolor="#ffffff"
   bordercolor="#666666"
   borderopacity="1"
   objecttolerance="10"
   gridtolerance="10"
   guidetolerance="10"
   inkscape:pageopacity="0"
   inkscape:pageshadow="2"
   inkscape:window-width="1920"
   inkscape:window-height="1017"
   id="namedview7"
   showgrid="false"
   inkscape:zoom="11.313709"
   inkscape:cx="32.230468"
   inkscape:cy="19.917292"
   inkscape:window-x="1912"
   inkscape:window-y="760"
   inkscape:window-maximized="1"
   inkscape:current-layer="svg5" />
<g
   id="Add">
	<path
   id="Hinzufügen_3_"
   d="M 16,0 C 7.163,0 0,7.163 0,16 0,24.84 7.163,32 16,32 24.835,32 32,24.84 32,16 32,7.163 24.835,0 16,0 Z m 9.29,17.985 c 0,0.363 -0.332,0.565 -0.697,0.565 H 18.79 v 6.128 c 0,0.365 -0.442,0.622 -0.807,0.622 h -3.967 c -0.363,0 -0.725,-0.257 -0.725,-0.622 V 18.55 H 7.405 C 7.043,18.55 6.79,18.348 6.79,17.985 V 14.018 C 6.79,13.655 7.043,13.3 7.405,13.3 H 13.29 V 7.408 C 13.29,7.043 13.653,6.8 14.015,6.8 h 3.967 c 0.365,0 0.807,0.243 0.807,0.608 V 13.3 h 5.803 c 0.365,0 0.697,0.355 0.697,0.718 v 3.967 z"
   inkscape:connector-curvature="0" />
</g>
<g
   id="Ebene_1">
</g>
<rect
   style="fill:#000000;fill-opacity:1;stroke:none;stroke-width:1.00157475;stroke-linecap:round;stroke-miterlimit:4;stroke-dasharray:none;stroke-dashoffset:0;stroke-opacity:1"
   id="rect4750"
   width="13.728813"
   height="6.8474579"
   x="9.1864405"
   y="6.4406781" /><rect
   style="fill:#000000;fill-opacity:1;stroke:none;stroke-width:1.00157475;stroke-linecap:round;stroke-miterlimit:4;stroke-dasharray:none;stroke-dashoffset:0;stroke-opacity:1"
   id="rect4750-7"
   width="13.728813"
   height="6.8474579"
   x="9.1929293"
   y="18.550186" /></svg>